<svg fill="none" xmlns="http://www.w3.org/2000/svg" viewBox="0 0 134 30" class="swiper-slide max-h-[32px]"><path d="M75.782 14.988a8.873 8.873 0 0 0-6.31-2.579 8.856 8.856 0 0 0-6.311 2.579 9.01 9.01 0 0 0-1.888 2.785 8.544 8.544 0 0 0-.69 3.427 8.65 8.65 0 0 0 .69 3.44 8.832 8.832 0 0 0 1.888 2.791 8.996 8.996 0 0 0 2.82 1.869c1.08.458 2.253.69 3.49.69 1.238 0 2.411-.232 3.491-.69a9.024 9.024 0 0 0 2.82-1.869 8.724 8.724 0 0 0 1.888-2.79 8.65 8.65 0 0 0 .69-3.441 8.544 8.544 0 0 0-.69-3.427 8.952 8.952 0 0 0-1.888-2.785Zm-1.696 8.361a4.746 4.746 0 0 1-.986 1.657 4.62 4.62 0 0 1-1.553 1.08c-.611.26-1.311.399-2.08.399-.77 0-1.47-.133-2.08-.4a4.505 4.505 0 0 1-1.554-1.08 4.746 4.746 0 0 1-.986-1.656 6.304 6.304 0 0 1-.355-2.15c0-.773.118-1.493.355-2.149a4.745 4.745 0 0 1 .986-1.656c.42-.45.942-.814 1.553-1.08.612-.266 1.312-.4 2.08-.4.77 0 1.465.134 2.081.4a4.572 4.572 0 0 1 1.553 1.08c.42.448.75 1.005.986 1.656a6.28 6.28 0 0 1 .355 2.15c0 .774-.118 1.498-.355 2.15ZM52.546 12.976c-2.475-1.025-5.275-.601-7.237.981V6.902h-3.944v22.68h3.944v-8.915c0-1.696.434-4.545 3.698-4.545 2.997 0 3.697 2.445 3.697 4.545v8.914h3.944V19.445c0-2.682-1.528-5.404-4.102-6.469ZM101.513 26.623v2.958h14.297V26.13h-9.298l8.805-10.142v-3.17h-13.311v3.452h8.554l-9.047 10.111M118.768 26.623v2.958h14.298V26.13h-9.299l8.806-10.142v-3.17h-13.312v3.452h8.554l-9.047 10.111M93.625 12.818v9.156c0 .493-.064 1.015-.198 1.553-.123.512-.335.99-.63 1.434-.282.424-.661.774-1.13 1.046-.453.266-1.04.399-1.74.399s-1.287-.133-1.745-.4a3.432 3.432 0 0 1-1.13-1.045 4.539 4.539 0 0 1-.63-1.43 6.54 6.54 0 0 1-.198-1.552v-9.16H82.28v9.524c0 3.545 1.543 5.936 4.65 7.12a8.31 8.31 0 0 0 2.992.532 8.37 8.37 0 0 0 3.032-.547c3.811-1.465 4.61-4.674 4.61-7.105v-9.525H93.62h.005ZM17.7 29.58h9.86V12.558L7.84 6.902V0H.938v29.58h9.86v-9.86H17.7v9.86Z" fill="#AFB3C7"></path></svg>