<svg fill="none" xmlns="http://www.w3.org/2000/svg" viewBox="0 0 138 32" class="swiper-slide max-h-[32px]"><g clip-path="url(#HashiCorp_gray_svg__a)" fill="#AFB3C7"><path d="M47.538 24.83v-7.36h-6.474v7.36h-3.296V7.378h3.296v7.18h6.474v-7.18h3.296v17.454h-3.296ZM62.919 24.83H60.3l-.237-.863a6.978 6.978 0 0 1-3.8 1.127c-2.334 0-3.33-1.598-3.33-3.8 0-2.594 1.128-3.59 3.722-3.59h3.065v-1.338c0-1.414-.392-1.912-2.436-1.912a17.845 17.845 0 0 0-3.537.38l-.392-2.437a16.648 16.648 0 0 1 4.377-.603c4.009 0 5.189 1.414 5.189 4.615l-.003 8.422Zm-3.198-4.822h-2.357c-1.048 0-1.335.287-1.335 1.26 0 .89.287 1.285 1.286 1.285a5.029 5.029 0 0 0 2.41-.66l-.004-1.885ZM69.106 25.091a15.043 15.043 0 0 1-4.404-.735l.445-2.436c1.236.354 2.514.539 3.8.55 1.414 0 1.625-.33 1.625-1.285 0-.784-.158-1.18-2.228-1.678-3.118-.761-3.484-1.546-3.484-4.008 0-2.568 1.127-3.695 4.77-3.695 1.288.001 2.572.15 3.827.445l-.33 2.541a22.458 22.458 0 0 0-3.51-.366c-1.388 0-1.626.33-1.626 1.101 0 1.022.08 1.101 1.81 1.546 3.573.946 3.916 1.418 3.916 4.025 0 2.476-.761 3.995-4.611 3.995ZM83.23 24.83v-8.9c0-.681-.287-1.021-1.022-1.021-.784 0-2.175.471-3.33 1.074v8.848h-3.196V6.853l3.197-.445v6.629a11.263 11.263 0 0 1 4.664-1.233c2.123 0 2.881 1.493 2.881 3.774v9.253H83.23ZM88.784 10.261V6.566h3.197v3.695h-3.197Zm0 14.57V12.068h3.197V24.83h-3.197ZM94.21 12.173c0-3.197 1.859-5.056 6.21-5.056 1.599 0 3.191.193 4.743.576l-.362 2.855a25.747 25.747 0 0 0-4.285-.445c-2.282 0-3.013.788-3.013 2.637v6.708c0 1.859.735 2.637 3.013 2.637a25.747 25.747 0 0 0 4.285-.445l.366 2.858a19.76 19.76 0 0 1-4.744.577c-4.35 0-6.21-1.86-6.21-5.057l-.003-7.845ZM111.723 25.091c-4.378 0-5.554-2.41-5.554-5.03v-3.224c0-2.62 1.18-5.03 5.554-5.03 4.374 0 5.554 2.41 5.554 5.03v3.224c-.01 2.62-1.187 5.03-5.554 5.03Zm0-10.548c-1.704 0-2.357.762-2.357 2.202v3.421c0 1.44.659 2.202 2.357 2.202 1.697 0 2.357-.761 2.357-2.201v-3.435c-.007-1.44-.663-2.202-2.357-2.202v.013ZM125.758 14.74a25.07 25.07 0 0 0-3.382 1.86v8.24h-3.197V12.068h2.7l.211 1.414a14.28 14.28 0 0 1 3.355-1.678l.313 2.937ZM137.882 20.585c0 2.832-1.259 4.506-4.219 4.506a17.64 17.64 0 0 1-3.409-.37v5.275l-3.197.445V12.068h2.541l.33 1.074a6.719 6.719 0 0 1 4.035-1.335c2.567 0 3.929 1.52 3.929 4.43l-.01 4.348Zm-7.624 1.44c.93.205 1.879.316 2.831.33 1.154 0 1.599-.55 1.599-1.704v-4.5c0-1.048-.392-1.624-1.573-1.624a4.52 4.52 0 0 0-2.857 1.153v6.346ZM13.567 0 .969 7.268v17.454l4.733 2.732V10.002l7.865-4.542V0Z"></path><path d="M18.594 0v13.9h-5.027V8.712l-4.733 2.733v17.81l4.733 2.738v-13.86h5.027v5.152l4.733-2.73V2.733L18.594 0Z"></path><path d="m18.594 32 12.598-7.268V7.278L26.46 4.546v17.453l-7.865 4.542V32Z"></path></g><defs><clipPath id="HashiCorp_gray_svg__a"><path fill="#fff" transform="translate(.969)" d="M0 0h137v32H0z"></path></clipPath></defs></svg>