<svg fill="none" xmlns="http://www.w3.org/2000/svg" viewBox="0 0 178 22" class="swiper-slide max-h-[32px]">
    <path d="M.563.423h6.51l4.842 13.35L16.686.423h6.393L14.5 21.694H9.118L.562.424Zm23.527 0h5.83v21.083h-5.83V.423ZM39.885.282h5.64l9.003 21.271h-6.276l-1.527-3.784h-8.133l-1.527 3.784h-6.088L39.885.282Zm5.148 12.88L42.681 7.17l-2.35 5.993h4.7Zm7.497-2.139v-.047C52.53 4.795 57.254 0 63.648 0c4.3 0 7.098 1.81 8.955 4.348l-4.419 3.455C66.986 6.323 65.622 5.36 63.6 5.36c-2.938 0-5.053 2.538-5.053 5.617v.047c0 3.15 2.115 5.641 5.053 5.641 2.163 0 3.456-1.01 4.748-2.538l4.42 3.126C70.768 20.002 68.09 22 63.435 22c-6.04-.047-10.906-4.654-10.906-10.976Zm19.438 0v-.047C71.968 4.912 76.881 0 83.391 0s11.33 4.865 11.33 10.93v.046c0 6.064-4.913 10.977-11.424 10.977-6.51 0-11.329-4.889-11.329-10.93Zm16.782 0v-.047c0-3.079-2.186-5.735-5.382-5.735-3.197 0-5.36 2.61-5.36 5.689v.046c0 3.009 2.187 5.688 5.43 5.688 3.173-.047 5.312-2.608 5.312-5.64Zm26.653-.305v-.07c0-2.821 1.035-6.206 2.798-8.133V.47h-6.229l-5.053 8.132-5.03-8.132h-6.182v21.083h5.735V9.473l5.359 8.249h.117l5.43-8.25v12.105h5.829v-2.633c-1.716-1.95-2.774-5.288-2.774-8.226Z" fill="#AFB3C7"></path>
    <path d="m159.121 18.38 3.244-3.854c2.092 1.645 4.419 2.538 6.886 2.538 1.599 0 2.445-.517 2.445-1.48v-.048c0-.893-.705-1.34-3.573-2.045-4.489-1.034-7.991-2.256-7.991-6.628v-.047c0-3.902 3.126-6.722 8.179-6.722 3.573 0 6.347 1.01 8.673 2.82l-2.961 4.114c-1.904-1.387-4.043-2.092-5.899-2.092-1.458 0-2.116.564-2.116 1.34v.047c0 .963.752 1.386 3.714 2.044 4.842 1.082 7.85 2.633 7.85 6.582v.047c0 4.3-3.384 6.84-8.508 6.84-3.832.07-7.357-1.152-9.943-3.456ZM139.66.423h10.811c2.68 0 4.49.658 5.759 1.857.893.94 1.387 2.162 1.34 3.431v.047c0 2.445-1.387 3.902-3.267 4.678 2.561.846 4.207 2.303 4.207 5.194v.047c0 3.596-2.938 5.83-7.991 5.83H139.66V.422Zm12.175 6.51c0-1.198-.94-1.81-2.679-1.81h-3.831v3.69h3.713c1.739 0 2.797-.634 2.797-1.809v-.07Zm-2.021 6.018h-4.466v3.855h4.583c1.81 0 2.797-.706 2.797-1.928v-.047c-.047-1.128-.94-1.88-2.914-1.88Zm-31.708-1.928v-.047C118.106 4.795 122.784 0 129.224 0c4.301 0 7.099 1.81 8.955 4.348l-4.419 3.455c-1.198-1.48-2.562-2.444-4.607-2.444-2.984 0-5.053 2.538-5.053 5.617v.047c0 3.15 2.092 5.641 5.053 5.641 2.163 0 3.455-1.01 4.748-2.538l4.419 3.126c-1.998 2.75-4.677 4.748-9.331 4.748-6.017-.047-10.883-4.654-10.883-10.976Z" fill="#9095AD"></path>
</svg>
