<svg fill="none" xmlns="http://www.w3.org/2000/svg" viewBox="0 0 106 24" class="swiper-slide max-h-[32px]"><g clip-path="url(#Fortune_gray_svg__a)"><path d="M13.71 5.476v13.048a5.534 5.534 0 1 0 11.069 0V5.476a5.534 5.534 0 1 0-11.068 0m3.96 13.048V5.476a1.503 1.503 0 0 1 1.632-1.515 1.468 1.468 0 0 1 1.514 1.515v13.048a1.538 1.538 0 0 1-1.514 1.515 1.571 1.571 0 0 1-1.631-1.515M56.7.234H45.516v3.96h3.612v19.457h3.961V4.194h3.612V.234Zm11.65 0v18.29a1.514 1.514 0 1 1-3.029 0V.234h-4.078v18.29a5.592 5.592 0 1 0 11.185 0V.234h-4.078Zm36.233 3.96V.234h-9.786V23.65h9.786v-3.962h-5.825v-6.058h3.728V9.67h-3.728V4.194h5.825ZM41.788 23.651h-4.194l-2.913-11.068a3.181 3.181 0 0 0 2.564-3.146V5.825a1.595 1.595 0 0 0-1.631-1.63h-1.515V23.65h-3.961V.233h5.476a5.546 5.546 0 0 1 5.592 5.36V9.32a6.256 6.256 0 0 1-2.214 5.126l2.796 9.204ZM85.944.233V13.05L81.866.233h-4.078v23.418h4.078V12.233l3.728 11.418h4.427V.233h-4.077ZM.312.583V24h4.195V13.98H8.35v-3.96H4.507V4.544h6.058V.583H.313Z" fill="#AFB3C7"></path></g><defs><clipPath id="Fortune_gray_svg__a"><path fill="#fff" transform="translate(.313)" d="M0 0h105v24H0z"></path></clipPath></defs></svg>