<svg fill="none" xmlns="http://www.w3.org/2000/svg" viewBox="0 0 98 22" class="swiper-slide max-h-[32px]"><path fill-rule="evenodd" clip-rule="evenodd" d="M93.76 6.287c0-1.703-1.552-3.274-3.346-3.274H80.06c-1.757 0-3.348 1.571-3.348 3.274v9.237c0 1.701 1.555 3.267 3.348 3.267h10.353c1.794 0 3.346-1.566 3.346-3.267V6.287Zm3.69 0v9.302c0 3.431-3.182 6.22-7.036 6.22H80.06c-3.888 0-7.037-2.821-7.037-6.285V6.287C73.024 2.82 76.174 0 80.061 0h10.353c3.89 0 7.037 2.664 7.037 6.287ZM64.839 21.808h3.724V0h-3.724v21.808Zm-22.495-7.312 11.873-4.3C59.39 8.304 60.374 4.906 60.374 0H37.402v3.013H56.62c-.237 2.052-1.63 3.432-3.32 4.042l-11.737 4.3c-5.28 1.922-5.682 4.969-5.682 10.453h24.493v-3.017H39.632c.137-2.435.882-3.62 2.71-4.295Zm-14.39 7.312h3.721V0h-3.721v21.808ZM19.947.033h3.65v7.79c0 1.16-.541 2.121-1.115 3.047l-5.481 8.76c-1.994 3.207-8.185 3.11-10.15 0l-5.644-8.95C.76 10.008.188 8.914.188 7.822V.033h3.687v8.11c0 .128.102.422.136.482l5.718 9.241c.812 1.314 3.688 1.314 4.5 0l5.512-9.08c.103-.193.207-.542.207-.642V.034Z" fill="#AFB3C7"></path></svg>