<svg fill="none" xmlns="http://www.w3.org/2000/svg" viewBox="0 0 139 20" class="swiper-slide max-h-[32px]"><path d="M25.72 3.482v8.48c0 .275.234.509.51.509a.514.514 0 0 0 .247-.07l7.342-4.239a.503.503 0 0 0 0-.88l-7.342-4.24a.5.5 0 0 0-.688.193.426.426 0 0 0-.068.247ZM9.29 16.27V7.79c0-.275-.22-.509-.508-.509a.568.568 0 0 0-.261.07L1.192 11.59a.5.5 0 0 0-.179.702c.042.082.11.137.18.178l7.341 4.24c.248.138.55.055.688-.193a.516.516 0 0 0 .068-.247Z" fill="#9095AD"></path><path d="M13.332 10.626v8.48c0 .275.234.509.51.509a.514.514 0 0 0 .247-.07l7.328-4.239a.488.488 0 0 0 .179-.688.447.447 0 0 0-.179-.179L14.09 10.2a.5.5 0 0 0-.688.193.464.464 0 0 0-.069.234ZM21.706 9.14V.66a.517.517 0 0 0-.509-.509.514.514 0 0 0-.247.07L13.608 4.46a.488.488 0 0 0-.18.688c.042.083.11.138.18.179l7.342 4.24c.247.137.55.054.687-.18.055-.068.069-.151.069-.247ZM67.546 19.628H65.36a.581.581 0 0 1-.577-.578V6.057c0-.317.261-.578.577-.578h2.186c.317 0 .578.261.578.578v13.007a.57.57 0 0 1-.578.564ZM78.037 3.827c4.784 0 7.493 3.4 7.493 8.148v.386a.581.581 0 0 1-.577.578H74.022a.282.282 0 0 0-.289.289v.055c.44 2.395 2.448 3.606 4.579 3.606a6.16 6.16 0 0 0 4.11-1.528.57.57 0 0 1 .812.07l1.279 1.527a.575.575 0 0 1-.042.785C82.973 19.105 81.007 20 78.353 20c-4.936 0-8.043-3.276-8.043-8.025-.014-4.528 2.97-8.148 7.727-8.148ZM77.968 6.8c-2.31 0-3.699 1.211-4.18 3.262-.041.151.055.303.22.344.014 0 .041.014.055.014h7.493a.282.282 0 0 0 .29-.29v-.04C81.528 8.12 80.25 6.8 77.967 6.8ZM114.858 3.827c4.784 0 7.493 3.4 7.493 8.148v.386a.581.581 0 0 1-.578.578h-10.93c-.152 0-.289.137-.275.289v.041c.44 2.395 2.447 3.606 4.578 3.606a6.185 6.185 0 0 0 4.111-1.527.57.57 0 0 1 .811.068l1.279 1.528a.562.562 0 0 1-.055.785c-1.498 1.363-3.465 2.257-6.118 2.257-4.936 0-8.044-3.276-8.044-8.024-.013-4.515 2.984-8.135 7.728-8.135Zm-.069 2.973c-2.31 0-3.699 1.211-4.18 3.262-.041.151.055.303.22.344.014 0 .041.014.055.014h7.493a.282.282 0 0 0 .289-.29v-.04c-.316-1.969-1.595-3.29-3.877-3.29ZM90.535 19.628h-2.241a.581.581 0 0 1-.578-.578V.743c0-.316.262-.578.578-.578h2.24c.317 0 .578.262.578.578v18.32a.57.57 0 0 1-.577.565ZM99.444 3.827c2.544 0 4.428.826 5.748 2.38a.572.572 0 0 1-.069.813l-1.568 1.321a.57.57 0 0 1-.77-.027c-.879-.881-2.062-1.418-3.588-1.418-1.54 0-2.502.55-2.502 1.542 0 1.046 1.017 1.294 3.643 1.913 3.08.743 5.239 1.638 5.239 4.749 0 3.18-2.283 4.9-6.256 4.9-2.681 0-5.294-1.046-6.627-2.753a.592.592 0 0 1 .068-.784l1.554-1.377a.582.582 0 0 1 .811.055c.963 1.074 2.406 1.83 4.441 1.83 1.636 0 2.613-.55 2.613-1.692 0-1.143-.949-1.377-3.41-1.941-2.654-.592-5.459-1.514-5.459-4.79 0-2.932 2.338-4.721 6.132-4.721ZM125.101 4.198h2.09c.316 0 .577.262.577.578v.909c0 .151.124.289.289.289a.323.323 0 0 0 .22-.096c1.155-1.363 2.736-2.038 4.578-2.038 3.548 0 5.583 2.313 5.583 6.332v8.906a.582.582 0 0 1-.578.578h-2.241a.581.581 0 0 1-.577-.578V10.75c0-2.436-1.169-3.758-3.355-3.758-2.503 0-3.822 1.845-3.822 5.369v6.717a.582.582 0 0 1-.578.578h-2.186a.582.582 0 0 1-.578-.578V4.776a.591.591 0 0 1 .578-.578ZM64.37 2.078A2.004 2.004 0 0 1 66.309 0h.137c1.21 0 2.076.88 2.076 2.078s-.88 2.079-2.076 2.079c-1.196 0-2.076-.867-2.076-2.079ZM42.99.165h2.337c.33 0 .647.138.867.385l11.563 13.214c.11.124.288.138.399.028a.274.274 0 0 0 .096-.22V.743c0-.316.261-.564.563-.578h2.365c.317 0 .578.262.578.578v18.32a.581.581 0 0 1-.578.579h-2.378c-.33 0-.646-.138-.867-.4L46.427 6.057c-.11-.124-.288-.137-.398-.027a.274.274 0 0 0-.097.22v12.815a.581.581 0 0 1-.577.578H42.99a.581.581 0 0 1-.577-.578V.744c0-.317.26-.579.577-.579Z" fill="#AFB3C7"></path></svg>