<svg fill="none" xmlns="http://www.w3.org/2000/svg" viewBox="0 0 133 32" class="swiper-slide max-h-[32px]"><g clip-path="url(#ClickUp_gray_svg__a)" fill="#AFB3C7"><path fill-rule="evenodd" clip-rule="evenodd" d="m.969 23.598 4.695-3.596c2.493 3.255 5.14 4.755 8.09 4.755 2.934 0 5.51-1.483 7.89-4.712l4.76 3.51c-3.433 4.656-7.705 7.116-12.65 7.116-4.928 0-9.239-2.443-12.785-7.073ZM13.835 7.97l-8.356 7.2-3.86-4.48L13.85.147l12.138 10.55-3.879 4.463-8.275-7.192Z"></path><path d="M58.82 6.227h-4.731v19.712h4.73V6.227Z"></path><path fill-rule="evenodd" clip-rule="evenodd" d="M44.528 26.026c-2.79 0-5.113-.903-6.998-2.711-1.886-1.834-2.815-4.183-2.815-7.05 0-2.892.955-5.268 2.84-7.127 1.911-1.885 4.235-2.815 6.998-2.815 3.41 0 6.43 1.472 8.186 3.77l-3.073 3.228c-1.472-1.575-3.072-2.375-4.803-2.375-1.471 0-2.685.49-3.692 1.497-.982 1.008-1.472 2.273-1.472 3.796 0 1.472.49 2.712 1.472 3.719 1.007.981 2.22 1.472 3.667 1.472 1.885 0 3.537-.826 4.906-2.453l3.202 3.073c-.878 1.162-2.066 2.117-3.538 2.866-1.471.749-3.099 1.11-4.88 1.11ZM65.916 7.804a2.562 2.562 0 1 1-5.125 0 2.562 2.562 0 0 1 5.125 0Zm-.197 3.745h-4.731v14.39h4.73V11.55ZM74.864 26.052c-2.247 0-4.055-.697-5.475-2.092-1.394-1.394-2.092-3.176-2.092-5.371 0-2.195.698-3.977 2.118-5.371 1.42-1.395 3.254-2.092 5.526-2.092 2.97 0 5.578 1.446 6.792 4.158l-3.641 1.91c-.723-1.213-1.73-1.833-3.047-1.833-.956 0-1.73.31-2.35.93-.594.62-.904 1.394-.904 2.298 0 1.885 1.368 3.28 3.202 3.28 1.317 0 2.53-.724 3.047-1.834l3.641 2.17c-1.24 2.375-3.796 3.847-6.817 3.847ZM87.6 6.227h-4.73v19.712h4.73V20.92l.554-.517 4.325 5.535h5.503l-6.644-8.504 6.312-5.886h-5.781L87.6 15.53V6.227ZM98.836 18.49V6.227h4.928v11.988c0 2.144 1.249 3.177 3.056 3.177 1.78 0 3.055-1.085 3.055-3.177V6.227h4.928V18.49c0 5.63-3.952 7.747-7.983 7.747-4.005 0-7.984-2.117-7.984-7.747ZM125.448 26.334c3.81 0 6.899-3.354 6.899-7.49 0-4.138-3.089-7.492-6.899-7.492-1.553 0-2.986.558-4.14 1.498v-1.3h-4.534v20.303h4.534v-7.017c1.154.94 2.587 1.498 4.14 1.498Zm-4.14-7.483v-.015c.004-1.848 1.459-3.344 3.253-3.344 1.796 0 3.252 1.5 3.252 3.351s-1.456 3.351-3.252 3.351c-1.794 0-3.249-1.496-3.253-3.343Z"></path></g><defs><clipPath id="ClickUp_gray_svg__a"><path fill="#fff" transform="translate(.969)" d="M0 0h132v32H0z"></path></clipPath></defs></svg>